<!DOCTYPE svg PUBLIC "-//W3C//DTD SVG 1.1//EN" "http://www.w3.org/Graphics/SVG/1.1/DTD/svg11.dtd">
<svg id="Untitled-P%E1gina%201" viewBox="0 0 195 80" style="background-color:#ffffff00" version="1.1"
	xmlns="http://www.w3.org/2000/svg" xmlns:xlink="http://www.w3.org/1999/xlink" xml:space="preserve"
	x="0px" y="0px" width="195px" height="80px"
>
	<g>
		<path d="M 47.549 49.0615 C 41.723 49.0615 36.5098 46.4803 32.9647 42.4011 C 36.0923 53.7943 44.856 59.3337 59.3063 59.3337 L 59.3063 50.8502 C 59.3063 48.819 59.1429 47.0143 58.8587 45.3918 C 55.6774 47.6907 51.7784 49.0615 47.549 49.0615 L 47.549 49.0615 ZM 47.549 45.7031 C 51.5275 45.7031 55.155 44.2428 57.9561 41.8447 C 54.351 31.6387 44.4546 31.636 40.1143 31.636 L 31.6457 31.636 L 31.6457 31.6453 L 31.6594 31.6453 C 32.6362 39.5713 39.3756 45.7031 47.549 45.7031 L 47.549 45.7031 ZM 32.9702 16.9128 C 36.516 12.8412 41.723 10.2694 47.5401 10.2694 C 51.7458 10.2694 55.6298 11.6249 58.8049 13.9059 C 59.1226 12.2889 59.3063 10.5002 59.3063 8.4823 L 59.3063 0 C 44.86 0 36.1019 5.5325 32.9702 16.9128 L 32.9702 16.9128 ZM 12.3741 13.6277 C 8.4012 13.6277 4.7708 15.0869 1.9651 17.4877 C 5.5776 27.6937 15.4693 27.6965 19.8116 27.6965 L 28.2842 27.6965 L 28.2842 27.6855 L 28.263 27.6855 C 27.2898 19.7611 20.5516 13.6277 12.3741 13.6277 L 12.3741 13.6277 ZM 57.8241 17.3771 C 55.0408 15.0413 51.4573 13.6277 47.5401 13.6277 C 39.366 13.6277 32.624 19.7611 31.6512 27.6855 L 31.6457 27.6855 L 31.6457 27.6965 L 40.1129 27.6965 C 42.8196 27.6965 53.8062 27.6965 57.8241 17.3771 L 57.8241 17.3771 ZM 2.1032 41.9551 C 4.8839 44.2911 8.4666 45.7031 12.3823 45.7031 C 20.5626 45.7031 27.3047 39.5713 28.2733 31.6453 L 28.2842 31.6453 L 28.2842 31.636 L 19.8129 31.636 C 17.1077 31.636 6.1205 31.636 2.1032 41.9551 L 2.1032 41.9551 ZM 12.3741 10.2694 C 18.2029 10.2694 23.4153 12.8541 26.9606 16.934 C 23.8337 5.5393 15.0698 0 0.6197 0 L 0.6197 8.4823 C 0.6197 10.5148 0.7822 12.3196 1.0652 13.9431 C 4.2486 11.639 8.1462 10.2694 12.3741 10.2694 L 12.3741 10.2694 ZM 12.3823 49.0615 C 8.1809 49.0615 4.2954 47.7076 1.1196 45.4237 C 0.8046 47.0394 0.6197 48.8347 0.6197 50.8502 L 0.6197 59.3337 C 15.0659 59.3337 23.8234 53.7998 26.9551 42.4181 C 23.4111 46.4884 18.2056 49.0615 12.3823 49.0615 L 12.3823 49.0615 Z" fill="#d2b22a"/>
		<path d="M 93.6272 53.6057 C 97.9717 53.1985 101.4089 52.0658 103.9438 50.2085 L 107.2021 47.8301 L 107.2021 44.6359 C 104.5777 46.5396 102.4033 47.9209 100.6843 48.7831 C 97.6989 50.2316 94.194 50.9558 90.1685 50.9558 C 83.6942 50.9558 78.3798 48.87 74.2162 44.7039 C 70.0983 40.5807 68.0408 35.2816 68.0408 28.8026 C 68.0408 22.3232 70.1223 17.002 74.283 12.8311 C 78.4458 8.6649 83.7405 6.5792 90.1685 6.5792 C 93.9211 6.5792 97.5179 7.2823 100.9558 8.6874 C 103.2167 9.6367 105.3022 10.9063 107.2021 12.4899 L 107.2021 9.0244 C 105.3464 7.5771 103.4216 6.4677 101.4312 5.6965 C 98.0845 4.472 94.3292 3.8612 90.1685 3.8612 C 82.8366 3.8612 76.8433 6.1946 72.181 10.86 C 67.566 15.4832 65.2573 21.4623 65.2573 28.8026 C 65.2573 36.1392 67.5849 42.1432 72.2504 46.8119 C 76.863 51.433 82.8366 53.7454 90.1685 53.7454 C 90.7976 53.7454 91.4105 53.7305 91.9988 53.7106 C 92.5867 53.6854 93.1286 53.6508 93.6272 53.6057 L 93.6272 53.6057 ZM 100.2565 79.8295 L 100.9408 79.8295 L 100.9408 67.5967 L 100.2565 67.5967 L 100.2565 79.8295 ZM 96.459 72.3922 C 95.9548 72.8037 95.3277 73.0129 94.5742 73.0129 L 92.3008 73.0129 L 92.3008 68.2996 L 94.5742 68.2996 C 95.3406 68.2996 95.9548 68.4951 96.4255 68.8815 C 96.9467 69.3041 97.2112 69.8873 97.2112 70.6302 C 97.2112 71.3724 96.9609 71.9597 96.459 72.3922 L 96.459 72.3922 ZM 94.5925 67.5967 L 91.6166 67.5967 L 91.6166 79.8295 L 92.3008 79.8295 L 92.3008 73.71 L 94.5925 73.71 C 95.5286 73.71 96.3141 73.4261 96.9549 72.8553 C 97.5914 72.3073 97.9133 71.567 97.9133 70.6302 C 97.9133 69.7061 97.5914 68.9664 96.9549 68.4196 C 96.3141 67.8685 95.5286 67.5967 94.5925 67.5967 L 94.5925 67.5967 ZM 191.701 72.3922 C 191.1957 72.8037 190.5698 73.0129 189.8203 73.0129 L 187.5457 73.0129 L 187.5457 68.2996 L 189.8203 68.2996 C 190.582 68.2996 191.1957 68.4951 191.6691 68.8815 C 192.1927 69.3041 192.4534 69.8873 192.4534 70.6302 C 192.4534 71.3724 192.2009 71.9597 191.701 72.3922 L 191.701 72.3922 ZM 192.1969 68.4196 C 191.5574 67.8685 190.7719 67.5967 189.8346 67.5967 L 186.8601 67.5967 L 186.8601 79.8295 L 187.5457 79.8295 L 187.5457 73.71 L 189.8346 73.71 C 190.7719 73.71 191.5574 73.4261 192.1969 72.8553 C 192.835 72.3073 193.158 71.567 193.158 70.6302 C 193.158 69.7061 192.835 68.9664 192.1969 68.4196 L 192.1969 68.4196 ZM 178.5798 73.0129 L 178.5798 68.2996 L 180.7002 68.2996 C 181.0668 68.2996 181.4063 68.35 181.728 68.446 C 182.0482 68.5421 182.3271 68.6829 182.5652 68.8744 C 182.8047 69.0625 182.9944 69.3029 183.1299 69.5918 C 183.2671 69.8832 183.3385 70.223 183.3385 70.614 C 183.3385 71.3877 183.1128 71.9821 182.6611 72.3922 C 182.2087 72.8037 181.6226 73.0129 180.8892 73.0129 L 178.5798 73.0129 ZM 182.0374 73.5317 C 182.4441 73.4146 182.8019 73.2252 183.1033 72.9766 C 183.4066 72.7252 183.6405 72.4058 183.8052 72.017 C 183.9685 71.6309 184.05 71.1661 184.05 70.6302 C 184.05 70.1393 183.967 69.7061 183.7854 69.3274 C 183.6167 68.9479 183.3762 68.6348 183.0795 68.3779 C 182.7828 68.1198 182.4307 67.9271 182.0162 67.7936 C 181.6055 67.6635 181.1749 67.5967 180.7184 67.5967 L 177.8943 67.5967 L 177.8943 79.8295 L 178.5798 79.8295 L 178.5798 73.71 L 179.8975 73.71 L 183.7813 79.8295 L 184.6003 79.8295 L 180.6831 73.71 C 181.1749 73.71 181.625 73.653 182.0374 73.5317 L 182.0374 73.5317 ZM 108.7433 67.5967 L 102.6359 67.5967 L 102.6359 68.2996 L 105.3357 68.2996 L 105.3357 79.8295 L 106.0363 79.8295 L 106.0363 68.2996 L 108.7433 68.2996 L 108.7433 67.5967 ZM 141.9143 24.996 L 115.2415 24.996 L 115.2415 4.5388 L 112.5281 4.5388 L 112.5281 53.0636 L 115.2415 53.0636 L 115.2415 27.7804 L 141.9143 27.7804 L 141.9143 53.0636 L 144.6976 53.0636 L 144.6976 4.5388 L 141.9143 4.5388 L 141.9143 24.996 ZM 140.7054 72.8887 L 137.6895 67.5967 L 136.8868 67.5967 L 140.3599 73.71 L 140.3599 79.8295 L 141.0592 79.8295 L 141.0592 73.71 L 144.5486 67.5967 L 143.7467 67.5967 L 140.7054 72.8887 ZM 157.9261 67.425 C 156.0807 67.425 154.5694 68.0123 153.3975 69.191 C 152.2315 70.3573 151.6507 71.8612 151.6507 73.71 C 151.6507 75.5613 152.2368 77.0748 153.4116 78.2523 C 154.5734 79.4186 156.0807 80 157.9261 80 C 158.0881 80 158.2439 79.996 158.3902 79.9912 C 158.5378 79.9857 158.6745 79.976 158.8037 79.9647 C 159.896 79.8617 160.7639 79.5769 161.4021 79.1097 L 162.2224 78.5111 L 162.2224 77.7041 C 161.5638 78.1836 161.0149 78.5336 160.583 78.7488 C 159.8295 79.1139 158.9445 79.2985 157.9261 79.2985 C 156.2952 79.2985 154.9592 78.7708 153.9088 77.7206 C 152.8683 76.6831 152.3513 75.344 152.3513 73.71 C 152.3513 72.0781 152.8763 70.7394 153.9224 69.6875 C 154.9762 68.6388 156.3059 68.1115 157.9261 68.1115 C 158.8764 68.1115 159.7805 68.2888 160.6498 68.6429 C 161.2198 68.8815 161.7448 69.202 162.2224 69.6024 L 162.2224 68.7292 C 161.7544 68.3622 161.2714 68.0808 160.768 67.8881 C 159.9241 67.5797 158.9791 67.425 157.9261 67.425 L 157.9261 67.425 ZM 128.8604 68.2996 L 131.5657 68.2996 L 131.5657 79.8295 L 132.2648 79.8295 L 132.2648 68.2996 L 134.97 68.2996 L 134.97 67.5967 L 128.8604 67.5967 L 128.8604 68.2996 ZM 120.7375 67.5967 L 120.0491 67.5967 L 120.0491 79.8295 L 124.1778 79.8295 L 124.1778 79.1256 L 120.7375 79.1256 L 120.7375 67.5967 ZM 126.4838 79.8295 L 127.166 79.8295 L 127.166 67.5967 L 126.4838 67.5967 L 126.4838 79.8295 ZM 110.933 75.46 L 113.4307 68.9847 L 115.9285 75.46 L 110.933 75.46 ZM 108.555 79.8295 L 109.2391 79.8295 L 110.6602 76.1627 L 116.2195 76.1627 L 117.6229 79.8295 L 118.3248 79.8295 L 113.4307 67.2004 L 108.555 79.8295 ZM 26.9307 73.0129 L 26.9307 68.2996 L 29.0508 68.2996 C 29.4167 68.2996 29.7569 68.35 30.0771 68.446 C 30.3975 68.5421 30.6765 68.6829 30.9158 68.8744 C 31.1567 69.0625 31.3452 69.3029 31.4811 69.5918 C 31.6165 69.8832 31.6845 70.223 31.6845 70.614 C 31.6845 71.3877 31.4622 71.9821 31.0104 72.3922 C 30.5596 72.8037 29.9671 73.0129 29.2398 73.0129 L 26.9307 73.0129 ZM 30.3868 73.5317 C 30.7989 73.4146 31.1526 73.2252 31.4559 72.9766 C 31.7587 72.7252 31.9912 72.4058 32.1558 72.017 C 32.3212 71.6309 32.4048 71.1661 32.4048 70.6302 C 32.4048 70.1393 32.3173 69.7061 32.1389 69.3274 C 31.962 68.9479 31.7255 68.6348 31.4301 68.3779 C 31.1343 68.1198 30.7806 67.9271 30.3683 67.7936 C 29.9575 67.6635 29.5256 67.5967 29.0699 67.5967 L 26.2463 67.5967 L 26.2463 79.8295 L 26.9307 79.8295 L 26.9307 73.71 L 28.2468 73.71 L 32.1307 79.8295 L 32.9511 79.8295 L 29.0311 73.71 C 29.5256 73.71 29.976 73.653 30.3868 73.5317 L 30.3868 73.5317 ZM 193.6565 79.4988 C 193.0022 79.4988 192.4745 78.973 192.4745 78.3121 C 192.4745 77.6563 193.0022 77.1321 193.6565 77.1321 C 194.313 77.1321 194.8328 77.6563 194.8328 78.3121 C 194.8328 78.973 194.313 79.4988 193.6565 79.4988 L 193.6565 79.4988 ZM 193.6565 76.9657 C 192.9117 76.9657 192.3057 77.5724 192.3057 78.3121 C 192.3057 79.0593 192.9117 79.6648 193.6565 79.6648 C 194.4009 79.6648 195 79.0593 195 78.3121 C 195 77.5724 194.4009 76.9657 193.6565 76.9657 L 193.6565 76.9657 ZM 21.3679 77.7571 C 20.3205 78.7838 18.9742 79.2985 17.3322 79.2985 C 15.7026 79.2985 14.3604 78.7708 13.313 77.7206 C 12.2709 76.6831 11.7559 75.344 11.7559 73.71 C 11.7559 72.0781 12.2797 70.7394 13.3273 69.6875 C 14.3774 68.6388 15.712 68.1115 17.3322 68.1115 C 18.9742 68.1115 20.3205 68.6388 21.3679 69.6875 C 22.4059 70.7284 22.9269 72.0687 22.9269 73.71 C 22.9269 75.3673 22.4059 76.7178 21.3679 77.7571 L 21.3679 77.7571 ZM 17.3322 67.425 C 15.4849 67.425 13.972 68.0123 12.798 69.191 C 11.6348 70.3573 11.0541 71.8612 11.0541 73.71 C 11.0541 75.5613 11.643 77.0748 12.8143 78.2523 C 13.9775 79.4186 15.4849 80 17.3322 80 C 19.1811 80 20.6926 79.4128 21.8665 78.234 C 23.0392 77.0693 23.6274 75.5613 23.6274 73.71 C 23.6274 71.8612 23.0392 70.349 21.8665 69.1715 C 20.6796 68.0082 19.1694 67.425 17.3322 67.425 L 17.3322 67.425 ZM 188.3672 50.2085 L 191.627 47.8301 L 191.627 44.6359 C 189.0027 46.5396 186.8308 47.9209 185.1106 48.7831 C 182.1223 50.2316 178.6173 50.9558 174.5945 50.9558 C 168.1211 50.9558 162.8019 48.87 158.6424 44.7039 C 154.5245 40.5807 152.4668 35.2816 152.4668 28.8026 C 152.4668 22.3232 154.5456 17.002 158.7091 12.8311 C 162.8707 8.6649 168.1638 6.5792 174.5945 6.5792 C 178.3446 6.5792 181.9442 7.2823 185.3818 8.6874 C 187.6429 9.6367 189.7256 10.9063 191.627 12.4899 L 191.627 9.0244 C 189.7686 7.5771 187.8489 6.4677 185.8572 5.6965 C 182.5066 4.472 178.7527 3.8612 174.5945 3.8612 C 167.26 3.8612 161.2626 6.1946 156.6061 10.86 C 151.9922 15.4832 149.6809 21.4623 149.6809 28.8026 C 149.6809 36.1392 152.0126 42.1432 156.6739 46.8119 C 161.2905 51.433 167.26 53.7454 174.5945 53.7454 C 175.2236 53.7454 175.834 53.7305 176.4236 53.7106 C 177.0126 53.6854 177.5527 53.6508 178.052 53.6057 C 182.3953 53.1985 185.8323 52.0658 188.3672 50.2085 L 188.3672 50.2085 ZM 6.2811 67.425 C 4.4335 67.425 2.9195 68.0123 1.7482 69.191 C 0.5836 70.3573 0 71.8612 0 73.71 C 0 75.5613 0.5905 77.0748 1.7618 78.2523 C 2.9283 79.4186 4.4335 80 6.2811 80 C 6.4415 80 6.5946 79.996 6.7423 79.9912 C 6.8884 79.9857 7.0265 79.976 7.1531 79.9647 C 8.2455 79.8617 9.1133 79.5769 9.7513 79.1097 L 10.5745 78.5111 L 10.5745 77.7041 C 9.9112 78.1836 9.3637 78.5336 8.9332 78.7488 C 8.1768 79.1139 7.2953 79.2985 6.2811 79.2985 C 4.6497 79.2985 3.3112 78.7708 2.259 77.7206 C 1.2217 76.6831 0.702 75.344 0.702 73.71 C 0.702 72.0781 1.2299 70.7394 2.2773 69.6875 C 3.3248 68.6388 4.6608 68.1115 6.2811 68.1115 C 7.2272 68.1115 8.1339 68.2888 9.0005 68.6429 C 9.5697 68.8815 10.095 69.202 10.5745 69.6024 L 10.5745 68.7292 C 10.1065 68.3622 9.6202 68.0808 9.1201 67.8881 C 8.2761 67.5797 7.33 67.425 6.2811 67.425 L 6.2811 67.425 ZM 87.853 73.5166 C 87.464 73.2825 87.0027 73.0435 86.4668 72.8037 C 85.6111 72.4161 85.0417 72.109 84.756 71.8772 C 84.2547 71.4463 84.0038 70.9375 84.0038 70.3573 C 84.0038 69.7061 84.2405 69.1797 84.7226 68.7797 C 85.1656 68.4004 85.7268 68.2145 86.4015 68.2145 C 87.0381 68.2145 87.5577 68.3383 87.9529 68.5912 C 88.2733 68.7723 88.5495 69.0515 88.7781 69.4296 L 89.4421 69.1394 C 88.8516 68.068 87.8347 67.5265 86.4015 67.5265 C 85.5323 67.5265 84.8024 67.7908 84.2071 68.3181 C 83.6037 68.8309 83.3018 69.5121 83.3018 70.3573 C 83.3018 71.1996 83.5997 71.8772 84.1907 72.3922 C 84.5444 72.7129 85.2062 73.0897 86.177 73.5248 C 86.6912 73.7538 87.1115 73.9573 87.4423 74.1426 C 87.7748 74.3236 88.0182 74.49 88.1774 74.6365 C 88.7834 75.1738 89.0854 75.8486 89.0854 76.6592 C 89.0854 77.5155 88.8278 78.166 88.3184 78.6105 C 87.8108 79.0446 87.1232 79.2616 86.2437 79.2616 C 84.7043 79.2616 83.7364 78.5336 83.3365 77.0693 L 82.6357 77.3092 C 83.1718 79.0804 84.3745 79.9647 86.2437 79.9647 C 86.8498 79.9647 87.3707 79.8881 87.8177 79.7262 C 89.1306 79.2338 89.7876 78.2129 89.7876 76.6592 C 89.7876 75.6881 89.4575 74.8776 88.7945 74.2263 C 88.5565 73.9866 88.2401 73.7496 87.853 73.5166 L 87.853 73.5166 ZM 193.6204 78.234 L 193.3322 78.234 L 193.3322 77.7734 L 193.7668 77.7734 C 193.9478 77.7734 194.1641 77.8002 194.1641 77.9915 C 194.1641 78.2675 193.8293 78.234 193.6204 78.234 L 193.6204 78.234 ZM 194.3313 77.9968 C 194.3313 77.7499 194.1987 77.6074 193.8103 77.6074 L 193.1636 77.6074 L 193.1636 79.0804 L 193.3322 79.0804 L 193.3322 78.4 L 193.6777 78.4 L 194.0974 79.0804 L 194.313 79.0804 L 193.8662 78.4 C 194.1279 78.3927 194.3313 78.2828 194.3313 77.9968 L 194.3313 77.9968 ZM 78.8369 77.7571 C 77.788 78.7838 76.4427 79.2985 74.7985 79.2985 C 73.1688 79.2985 71.8289 78.7708 70.7793 77.7206 C 69.7392 76.6831 69.2209 75.344 69.2209 73.71 C 69.2209 72.0781 69.7474 70.7394 70.7963 69.6875 C 71.8437 68.6388 73.1797 68.1115 74.7985 68.1115 C 76.4427 68.1115 77.788 68.6388 78.8369 69.6875 C 79.8748 70.7284 80.3946 72.0687 80.3946 73.71 C 80.3946 75.3673 79.8748 76.7178 78.8369 77.7571 L 78.8369 77.7571 ZM 74.7985 67.425 C 72.9525 67.425 71.4382 68.0123 70.2657 69.191 C 69.1039 70.3573 68.5203 71.8612 68.5203 73.71 C 68.5203 75.5613 69.108 77.0748 70.2821 78.2523 C 71.4452 79.4186 72.9525 80 74.7985 80 C 76.6473 80 78.1588 79.4128 79.3342 78.234 C 80.5076 77.0693 81.0966 75.5613 81.0966 73.71 C 81.0966 71.8612 80.5076 70.349 79.3342 69.1715 C 78.1458 68.0082 76.6331 67.425 74.7985 67.425 L 74.7985 67.425 ZM 36.818 75.46 L 39.3171 68.9847 L 41.8148 75.46 L 36.818 75.46 ZM 34.4401 79.8295 L 35.1271 79.8295 L 36.5453 76.1627 L 42.106 76.1627 L 43.5093 79.8295 L 44.2112 79.8295 L 39.3171 67.2004 L 34.4401 79.8295 ZM 173.0198 77.7571 C 171.9669 78.7838 170.6241 79.2985 168.9802 79.2985 C 167.3506 79.2985 166.0104 78.7708 164.9617 77.7206 C 163.9221 76.6831 163.4066 75.344 163.4066 73.71 C 163.4066 72.0781 163.9277 70.7394 164.9763 69.6875 C 166.0282 68.6388 167.3586 68.1115 168.9802 68.1115 C 170.6241 68.1115 171.9669 68.6388 173.0198 69.6875 C 174.0537 70.7284 174.5762 72.0687 174.5762 73.71 C 174.5762 75.3673 174.0537 76.7178 173.0198 77.7571 L 173.0198 77.7571 ZM 168.9802 67.425 C 167.136 67.425 165.6187 68.0123 164.4474 69.191 C 163.2842 70.3573 162.7019 71.8612 162.7019 73.71 C 162.7019 75.5613 163.2896 77.0748 164.4622 78.2523 C 165.6288 79.4186 167.136 80 168.9802 80 C 170.8291 80 172.3376 79.4128 173.5144 78.234 C 174.6877 77.0693 175.2769 75.5613 175.2769 73.71 C 175.2769 71.8612 174.6877 70.349 173.5144 69.1715 C 172.3289 68.0082 170.816 67.425 168.9802 67.425 L 168.9802 67.425 ZM 46.6198 67.5967 L 45.9389 67.5967 L 45.9389 79.8295 L 50.0597 79.8295 L 50.0597 79.1256 L 46.6198 79.1256 L 46.6198 67.5967 ZM 65.1654 72.7545 L 58.4453 72.7545 L 58.4453 67.5967 L 57.7589 67.5967 L 57.7589 79.8295 L 58.4453 79.8295 L 58.4453 73.4548 L 65.1654 73.4548 L 65.1654 79.8295 L 65.8688 79.8295 L 65.8688 67.5967 L 65.1654 67.5967 L 65.1654 72.7545 Z" fill="#221e1f"/>
	</g>
</svg>